# xmcd
#
# Track frame offsets:
#	150
#	12862
#	23980
#	36496
#	51259
#	60152
#	73059
#	82958
#	96264
#	108394
#	120787
#	134816
#	148147
#	161147
#	178195
#	190560
#	203441
#	215648
#	227755
#	242269
#	256355
#	268771
#	281733
#	297689
#	310783
#
# Disc length: 4313 seconds
#
# Revision: 1
# Processed by: cddbd v1.5.1PL2 Copyright (c) Steve Scherf et al.
# Submitted via: audiograbber 1.83.01
#
DISCID=7410d719
DTITLE=Vrazel's - Vrazel's Polka Band
DYEAR=1900
DGENRE=Polka
TTITLE0=Red Rose Polka
TTITLE1=Enchanted Woods
TTITLE2=I Love To Dance
TTITLE3=Happy Go Lucky
TTITLE4=Helena Polka
TTITLE5=Over The Hills
TTITLE6=Tinker Polka
TTITLE7=Path To Moravia
TTITLE8=Deer Waltz
TTITLE9=Village Tavern Polka
TTITLE10=From Tabor To USA
TTITLE11=No One Knows
TTITLE12=Let's Have A Party
TTITLE13=Wild Goose Waltz
TTITLE14=Riding Pony Polka
TTITLE15=Circling Pigeons
TTITLE16=Kadju
TTITLE17=Echoes In The Hills
TTITLE18=Golden Pheasant Polka
TTITLE19=Baca's Famous Waltz
TTITLE20=Come Joe To Us
TTITLE21=Angel Polka
TTITLE22=Once On A Sunday
TTITLE23=Poor Cinderella
TTITLE24=Beautiful America
EXTD=
EXTT0=
EXTT1=
EXTT2=
EXTT3=
EXTT4=
EXTT5=
EXTT6=
EXTT7=
EXTT8=
EXTT9=
EXTT10=
EXTT11=
EXTT12=
EXTT13=
EXTT14=
EXTT15=
EXTT16=
EXTT17=
EXTT18=
EXTT19=
EXTT20=
EXTT21=
EXTT22=
EXTT23=
EXTT24=
PLAYORDER=
